<svg width="39" height="24" viewBox="0 0 39 24" fill="none" xmlns="http://www.w3.org/2000/svg">
<path d="M14.041 2.56641H24.4476V21.4331H14.041V2.56641Z" fill="#FF5F00"/>
<path d="M14.7016 12C14.7016 8.16672 16.4855 4.76666 19.2275 2.5666C17.2124 0.966633 14.6686 0 11.8935 0C5.3189 0 0 5.36659 0 12C0 18.6334 5.3189 24 11.8934 24C14.6685 24 17.2123 23.0334 19.2275 21.4332C16.4855 19.2666 14.7016 15.8333 14.7016 12Z" fill="#EB001B"/>
<path d="M38.4873 12C38.4873 18.6333 33.1684 24 26.5939 24C23.8188 24 21.275 23.0334 19.2598 21.4332C22.0349 19.2333 23.7859 15.8333 23.7859 12C23.7859 8.16672 22.0018 4.76666 19.2598 2.5666C21.2749 0.966633 23.8188 0 26.5939 0C33.1684 0 38.4873 5.39999 38.4873 12Z" fill="#F79E1B"/>
</svg>
